<?xml version="1.0" encoding="UTF-8" standalone="no"?>
<!-- Created with Inkscape (http://www.inkscape.org/) -->

<svg
   xmlns:dc="http://purl.org/dc/elements/1.1/"
   xmlns:cc="http://creativecommons.org/ns#"
   xmlns:rdf="http://www.w3.org/1999/02/22-rdf-syntax-ns#"
   xmlns:svg="http://www.w3.org/2000/svg"
   xmlns="http://www.w3.org/2000/svg"
   xmlns:sodipodi="http://sodipodi.sourceforge.net/DTD/sodipodi-0.dtd"
   xmlns:inkscape="http://www.inkscape.org/namespaces/inkscape"
   width="15mm"
   height="15mm"
   viewBox="0 0 15 15"
   version="1.1"
   id="svg1086"
   inkscape:version="0.92.1 r"
   sodipodi:docname="logo.svg"
   inkscape:export-filename="/home/charon/Projekte/styx/demogame/textures/styx/logo.png"
   inkscape:export-xdpi="1733.97"
   inkscape:export-ydpi="1733.97">
  <defs
     id="defs1080" />
  <sodipodi:namedview
     id="base"
     pagecolor="#ffffff"
     bordercolor="#666666"
     borderopacity="1.0"
     inkscape:pageopacity="0.0"
     inkscape:pageshadow="2"
     inkscape:zoom="7.9195959"
     inkscape:cx="25.374946"
     inkscape:cy="36.396084"
     inkscape:document-units="mm"
     inkscape:current-layer="layer1"
     showgrid="false"
     inkscape:window-width="1920"
     inkscape:window-height="1017"
     inkscape:window-x="1680"
     inkscape:window-y="27"
     inkscape:window-maximized="1"
     fit-margin-top="0"
     fit-margin-left="0"
     fit-margin-right="0"
     fit-margin-bottom="0" />
  <metadata
     id="metadata1083">
    <rdf:RDF>
      <cc:Work
         rdf:about="">
        <dc:format>image/svg+xml</dc:format>
        <dc:type
           rdf:resource="http://purl.org/dc/dcmitype/StillImage" />
        <dc:title></dc:title>
      </cc:Work>
    </rdf:RDF>
  </metadata>
  <g
     inkscape:label="Ebene 1"
     inkscape:groupmode="layer"
     id="layer1"
     transform="translate(-101.06139,-61.45089)">
    <g
       id="g1669"
       transform="translate(-9.4385876,-0.05218549)">
      <ellipse
         id="path4232"
         style="fill:#000000;stroke:none;stroke-width:0.28547099"
         cx="118.082"
         cy="67.531441"
         rx="3.8092535"
         ry="2.5513971" />
      <path
         sodipodi:nodetypes="czsccsssszccssccccccsccsccccssscccccsscccccccccccccccsscccccscccccccccscscczzcccscccccccssccccscccccccccscccccccccccccccccsccscsscccccsccsccscsccccccscscccsscsscscscscscsccccccsccc"
         inkscape:connector-curvature="0"
         id="path4234"
         d="m 113.52754,68.120776 c -0.0228,-0.155437 -0.097,-0.553337 -0.10232,-0.717042 -0.005,-0.163705 -0.009,-0.996731 0.007,-1.05107 l 0.0426,-0.142744 c 0.0234,-0.07851 0.0661,-0.245503 0.0948,-0.371101 0.0287,-0.125599 0.077,-0.262614 0.1073,-0.304478 0.0303,-0.04187 0.0787,-0.178882 0.10741,-0.304478 0.13966,-0.610031 0.99085,-1.520024 1.83364,-1.960309 1.44519,-0.754994 3.01863,-0.729786 4.67592,0.0749 0,0 0.38057,0.144164 0.56545,0.274552 0.18488,0.130388 0.51993,0.510733 0.51993,0.510733 l 0.51993,0.510731 0.26281,0.568821 c 0.3562,0.770934 0.41719,1.085603 0.41715,2.151923 l -5e-5,0.913438 -0.18049,0.826696 -0.18049,0.826695 -0.13281,0.124797 c -0.073,0.06864 -0.10883,0.08198 -0.0795,0.02965 l 0.0533,-0.09515 h -0.0806 c -0.0443,0 -0.1418,0.06119 -0.2166,0.135985 l -0.13597,0.135989 -0.18754,-0.05228 c -0.10313,-0.02875 -0.31587,-0.05569 -0.47274,-0.05987 l -0.28523,-0.0076 -0.3047,0.275273 -0.3047,0.275277 v 0.181443 c 0,0.0998 -0.0343,0.181439 -0.0761,0.181439 -0.0419,0 -0.0761,0.08284 -0.0761,0.184075 0,0.250624 -0.0746,0.425663 -0.17941,0.421093 -0.0479,-0.0023 -0.23049,-0.07341 -0.40586,-0.1585 l -3.9e-4,-10e-6 c -0.17537,-0.08509 -0.37552,-0.241186 -0.44478,-0.346881 l -0.12592,-0.192179 0.0832,-0.08321 c 0.0458,-0.04576 0.0832,-0.114322 0.0832,-0.152355 v -0.06915 l -0.18159,0.04558 -0.18159,0.04557 -0.0941,-0.113443 c -0.12362,-0.148947 -0.22717,-0.143329 -0.34569,0.01876 l -0.0967,0.132198 -0.14607,-0.132198 c -0.26869,-0.243156 -0.35439,-0.160875 -0.41726,0.400638 l -0.0213,0.190301 -0.20932,0.02409 -0.20934,0.02409 v -0.231659 -0.23166 l -0.20002,-0.13106 -0.20002,-0.13106 -0.29081,0.167366 c -0.15994,0.09205 -0.32468,0.167363 -0.36608,0.167363 h -0.0753 l 0.0452,-0.278254 0.0452,-0.278251 -0.088,0.05439 -0.088,0.05439 v -0.100363 c 0,-0.0552 -0.0731,-0.146013 -0.16244,-0.201811 l -0.16244,-0.101442 -0.0564,0.09126 -0.0564,0.09126 -0.0478,-0.07738 c -0.0263,-0.04256 -0.0286,-0.127431 -0.005,-0.188602 l 0.0427,-0.111228 -0.11611,-0.04456 c -0.0639,-0.02449 -0.13236,-0.01824 -0.15223,0.01387 -0.0388,0.06281 -0.24629,0.04919 -0.83774,-0.05499 l -0.37419,-0.06591 -0.10693,-0.143361 c -0.0588,-0.07885 -0.13028,-0.137623 -0.15884,-0.130612 -0.0286,0.007 -0.0548,-0.102903 -0.0584,-0.244263 -0.004,-0.141359 0.0985,-0.299966 5.8e-4,-0.473539 -0.0979,-0.173573 -0.006,-0.435146 -0.0291,-0.590583 z m 6.11321,2.97271 c 0.0236,-0.06146 0.0101,-0.131987 -0.0299,-0.156732 l -0.0728,-0.04499 v 0.156732 c 0,0.183795 0.0423,0.202339 0.10271,0.04499 z m -1.72435,-1.600933 c 0.16124,-0.112941 0.40372,-0.0852 0.40372,0.04619 0,0.105869 0.33518,0.07991 0.49712,-0.0385 l 0.14561,-0.106478 -0.0175,-0.402622 c -0.01,-0.221443 -0.0686,-0.480605 -0.13107,-0.575921 -0.0624,-0.09532 -0.11355,-0.2379 -0.11355,-0.316855 0,-0.07896 -0.0368,-0.249071 -0.0817,-0.378027 l -0.0817,-0.234469 -0.20371,-0.0023 c -0.11204,-0.0011 -0.26492,-0.01216 -0.33974,-0.02429 l -0.13602,-0.02201 -0.10175,0.190301 c -0.27747,0.518943 -0.40457,0.806361 -0.38709,0.875377 0.0106,0.04186 0.0615,0.216752 0.11319,0.38864 l 0.0939,0.312519 -0.082,0.153221 c -0.14001,0.261617 0.12208,0.345509 0.42235,0.135191 z m 0.11446,-0.35778 c -0.12654,-0.126547 -0.11431,-0.403785 0.0228,-0.517614 l 0.11418,-0.09476 v 0.351863 c 0,0.38556 -0.004,0.393402 -0.13702,0.260513 z m 0.0121,-0.936842 c -0.0242,-0.06311 -0.0214,-0.235339 0.006,-0.382714 l 0.0503,-0.26796 0.0705,0.04355 c 0.0388,0.02395 0.0638,0.196182 0.0557,0.382717 -0.0147,0.338232 -0.0992,0.441998 -0.1827,0.224403 z m -3.93954,1.0488 c -0.0253,-0.02529 -0.0433,0.01967 -0.04,0.09991 l 0.006,0.145898 0.04,-0.09991 c 0.022,-0.05495 0.0193,-0.1206 -0.006,-0.145896 z m 3.23362,-0.10471 -0.0729,-0.182322 -0.005,0.158582 c -0.003,0.08722 0.018,0.18142 0.0459,0.209327 0.0909,0.09092 0.10637,8.57e-4 0.0318,-0.185587 z m 3.72179,-0.714323 c 0.26887,-0.139041 0.31139,-0.264435 0.27132,-0.800092 -0.0391,-0.523197 -0.0738,-0.604051 -0.35395,-0.826482 l -0.22605,-0.179467 -0.50066,-0.1142 -0.50065,-0.114199 -0.18547,0.08451 -0.18547,0.0845 -0.11023,0.263806 c -0.0606,0.145091 -0.11022,0.440959 -0.11022,0.657486 v 0.393681 l 0.13321,0.104805 c 0.18781,0.147774 0.60715,0.335001 1.00858,0.450319 0.44986,0.12923 0.50127,0.128913 0.75959,-0.0047 z m -4.79554,-0.231583 c 0.27302,-0.105975 0.56744,-0.25217 0.65428,-0.324877 l 0.15789,-0.13219 0.0928,-0.471752 0.0928,-0.47175 -0.11889,-0.229884 -0.11887,-0.229884 -0.20041,-0.0503 c -0.11022,-0.02766 -0.30656,-0.01425 -0.4363,0.02974 -0.12974,0.04402 -0.37291,0.102712 -0.54038,0.130431 -0.39139,0.06479 -0.84351,0.360022 -0.89822,0.586543 -0.0235,0.09722 -0.0787,0.313773 -0.12277,0.481236 l -0.0801,0.304477 0.0825,0.205542 0.0825,0.20554 0.20166,0.0739 c 0.33526,0.122856 0.63052,0.09548 1.15155,-0.106769 z m -1.77454,-1.761053 c -0.0279,-0.02792 -0.0507,-0.0051 -0.0507,0.05075 0,0.05582 0.0228,0.07866 0.0507,0.05074 0.0279,-0.02792 0.0279,-0.07358 0,-0.101493 z m 0.25373,0.0037 c 0,-0.02095 -0.0343,-0.01687 -0.0761,0.009 -0.0419,0.02586 -0.0761,0.06417 -0.0761,0.0851 0,0.02095 0.0343,0.01687 0.0761,-0.009 0.0419,-0.02586 0.0761,-0.06417 0.0761,-0.0851 z m 1.64399,4.948648 c -0.025,-0.06518 -0.0455,-0.235605 -0.0455,-0.378711 v -0.260193 h 0.12101 c 0.13367,0 0.40531,0.289197 0.40929,0.435735 0.001,0.05126 -0.0969,0.144605 -0.2184,0.207443 l -0.22094,0.114254 -0.0455,-0.118522 z"
         style="fill:#f9f9f9;stroke:#000000;stroke-width:0.1712826;stroke-miterlimit:4;stroke-dasharray:none;stroke-opacity:1" />
    </g>
    <text
       xml:space="preserve"
       style="font-style:normal;font-variant:normal;font-weight:normal;font-stretch:normal;font-size:2.87706614px;line-height:1.79816651px;font-family:'Nova Square';-inkscape-font-specification:'Nova Square, Normal';font-variant-ligatures:normal;font-variant-caps:normal;font-variant-numeric:normal;font-feature-settings:normal;text-align:start;letter-spacing:0px;word-spacing:0px;writing-mode:lr-tb;text-anchor:start;fill:#000000;fill-opacity:1;stroke:none;stroke-width:0.07192665px;stroke-linecap:butt;stroke-linejoin:miter;stroke-opacity:1"
       x="103.32845"
       y="74.972305"
       id="text1675"><tspan
         sodipodi:role="line"
         id="tspan1673"
         x="103.32845"
         y="74.972305"
         style="font-style:normal;font-variant:normal;font-weight:normal;font-stretch:normal;font-size:2.87706614px;font-family:'Nova Square';-inkscape-font-specification:'Nova Square, Normal';font-variant-ligatures:normal;font-variant-caps:normal;font-variant-numeric:normal;font-feature-settings:normal;text-align:start;writing-mode:lr-tb;text-anchor:start;stroke-width:0.07192665px">S T Y X</tspan></text>
  </g>
</svg>
