<?xml version="1.0" encoding="UTF-8" standalone="no"?>
<!-- Created with Inkscape (http://www.inkscape.org/) -->

<svg
   xmlns:dc="http://purl.org/dc/elements/1.1/"
   xmlns:cc="http://creativecommons.org/ns#"
   xmlns:rdf="http://www.w3.org/1999/02/22-rdf-syntax-ns#"
   xmlns:svg="http://www.w3.org/2000/svg"
   xmlns="http://www.w3.org/2000/svg"
   xmlns:sodipodi="http://sodipodi.sourceforge.net/DTD/sodipodi-0.dtd"
   xmlns:inkscape="http://www.inkscape.org/namespaces/inkscape"
   width="270.93332mm"
   height="67.73333mm"
   viewBox="0 0 270.93332 67.733329"
   version="1.1"
   id="svg8"
   inkscape:version="0.92.2 2405546, 2018-03-11"
   sodipodi:docname="title.svg"
   inkscape:export-filename="/home/charon/Projekte/styx/demogame/textures/menu/title.png"
   inkscape:export-xdpi="96"
   inkscape:export-ydpi="96">
  <defs
     id="defs2" />
  <sodipodi:namedview
     id="base"
     pagecolor="#ffffff"
     bordercolor="#666666"
     borderopacity="1.0"
     inkscape:pageopacity="0.0"
     inkscape:pageshadow="2"
     inkscape:zoom="2.8"
     inkscape:cx="268.36474"
     inkscape:cy="83.7453"
     inkscape:document-units="mm"
     inkscape:current-layer="layer1"
     showgrid="false"
     fit-margin-top="0"
     fit-margin-left="0"
     fit-margin-right="0"
     fit-margin-bottom="0"
     inkscape:window-width="1920"
     inkscape:window-height="1020"
     inkscape:window-x="1680"
     inkscape:window-y="28"
     inkscape:window-maximized="1" />
  <metadata
     id="metadata5">
    <rdf:RDF>
      <cc:Work
         rdf:about="">
        <dc:format>image/svg+xml</dc:format>
        <dc:type
           rdf:resource="http://purl.org/dc/dcmitype/StillImage" />
        <dc:title></dc:title>
      </cc:Work>
    </rdf:RDF>
  </metadata>
  <g
     inkscape:label="Ebene 1"
     inkscape:groupmode="layer"
     id="layer1"
     transform="translate(64.992996,-0.11860243)">
    <path
       style="font-style:normal;font-variant:normal;font-weight:normal;font-stretch:normal;font-size:25.39999962px;line-height:6.61458302px;font-family:'Nova Cut';-inkscape-font-specification:'Nova Cut, Normal';font-variant-ligatures:normal;font-variant-caps:normal;font-variant-numeric:normal;font-feature-settings:normal;text-align:start;letter-spacing:0px;word-spacing:0px;writing-mode:lr-tb;text-anchor:start;fill:#ffffff;fill-opacity:1;stroke:none;stroke-width:0.26458332px;stroke-linecap:butt;stroke-linejoin:miter;stroke-opacity:1"
       d="m -5.7246094,22.318359 c -6.5056996,2.037387 -2.6565357,5.327169 -3.4980468,11 1.1696311,3.962567 -2.9745198,14.044825 3.4786065,12.305993 C 1.6680656,44.554003 9.5484196,37.829178 6.9726562,29.691406 5.4456151,24.141801 -0.70424291,21.021081 -5.7246094,22.318359 Z m 3.4453125,6.03711 c 4.8299351,1.743474 3.9485811,8.889591 -0.4628906,10.59375 0.2968854,-3.222052 -0.5987241,-8.565702 0.4628906,-10.59375 z"
       id="path8332"
       inkscape:connector-curvature="0" />
    <path
       style="font-style:normal;font-variant:normal;font-weight:normal;font-stretch:normal;font-size:25.39999962px;line-height:6.61458302px;font-family:'Nova Cut';-inkscape-font-specification:'Nova Cut, Normal';font-variant-ligatures:normal;font-variant-caps:normal;font-variant-numeric:normal;font-feature-settings:normal;text-align:start;letter-spacing:0px;word-spacing:0px;writing-mode:lr-tb;text-anchor:start;fill:#ffffff;fill-opacity:1;stroke:none;stroke-width:0.26458332px;stroke-linecap:butt;stroke-linejoin:miter;stroke-opacity:1"
       d="m 12.701172,27.628906 c -5.1527032,2.460402 -7.0210277,6.586708 -5.8945314,12.101563 0.1306817,5.683092 8.4266084,8.45089 11.5052724,3.249323 5.115106,-2.674005 1.181389,-6.617578 2.729103,-9.65362 -0.06153,-4.107875 -4.780937,-7.052884 -8.339844,-5.697266 z m 1.304687,5.544922 c 1.412905,2.050705 -2.489894,0.477762 0,0 z"
       id="path8334"
       inkscape:connector-curvature="0" />
    <path
       style="font-style:normal;font-variant:normal;font-weight:normal;font-stretch:normal;font-size:25.39999962px;line-height:6.61458302px;font-family:'Nova Cut';-inkscape-font-specification:'Nova Cut, Normal';font-variant-ligatures:normal;font-variant-caps:normal;font-variant-numeric:normal;font-feature-settings:normal;text-align:start;letter-spacing:0px;word-spacing:0px;writing-mode:lr-tb;text-anchor:start;fill:#ffffff;fill-opacity:1;stroke:none;stroke-width:0.26458332px;stroke-linecap:butt;stroke-linejoin:miter;stroke-opacity:1"
       d="m 24.316406,27.402344 c -6.055254,1.02325 -2.707278,8.088198 -3.458984,12.417968 0.180545,5.625023 8.456793,8.33127 11.493554,3.15948 4.813946,-2.731195 2.944963,-12.594109 1.758399,-15.768854 -6.908963,-0.675285 -5.654277,6.369866 -5.480469,11.115234 0.90571,2.267541 -2.681539,1.77281 -1.332031,-0.417969 -0.991589,-2.943178 2.497982,-12.83707 -2.980469,-10.505859 z"
       id="path8336"
       inkscape:connector-curvature="0" />
    <path
       style="font-style:normal;font-variant:normal;font-weight:normal;font-stretch:normal;font-size:25.39999962px;line-height:6.61458302px;font-family:'Nova Cut';-inkscape-font-specification:'Nova Cut, Normal';font-variant-ligatures:normal;font-variant-caps:normal;font-variant-numeric:normal;font-feature-settings:normal;text-align:start;letter-spacing:0px;word-spacing:0px;writing-mode:lr-tb;text-anchor:start;fill:#ffffff;fill-opacity:1;stroke:none;stroke-width:0.26458332px;stroke-linecap:butt;stroke-linejoin:miter;stroke-opacity:1"
       d="m 40.40625,27.628906 c -3.391953,1.834298 -7.286956,5.091846 -4.388672,8.910156 -2.565784,1.078044 -1.671364,6.445878 1.31836,8.082032 4.28391,3.117971 8.168248,-1.103724 11.470703,-3.798828 -7.08e-4,-2.268522 -0.124338,-4.885284 -1.859375,-6.572266 3.46487,-2.667676 -3.105584,-8.774517 -6.541016,-6.621094 z m 1.109375,10.984375 c 2.450217,0.399604 -1.258699,2.503814 -0.552734,-0.01563 z"
       id="path8338"
       inkscape:connector-curvature="0" />
    <path
       style="font-style:normal;font-variant:normal;font-weight:normal;font-stretch:normal;font-size:25.39999962px;line-height:6.61458302px;font-family:'Nova Cut';-inkscape-font-specification:'Nova Cut, Normal';font-variant-ligatures:normal;font-variant-caps:normal;font-variant-numeric:normal;font-feature-settings:normal;text-align:start;letter-spacing:0px;word-spacing:0px;writing-mode:lr-tb;text-anchor:start;fill:#ffffff;fill-opacity:1;stroke:none;stroke-width:0.26458332px;stroke-linecap:butt;stroke-linejoin:miter;stroke-opacity:1"
       d="m 61.154297,22.8125 c -5.554934,1.56179 -0.0519,9.375712 -3.85098,12.497005 0.148696,4.313533 0.915371,4.564794 -0.471286,10.040104 5.001748,-0.859196 12.1445,1.6695 15.91211,-1.142578 6.18988,-6.987586 -11.608819,-3.317243 -5.570313,-5.332031 5.972673,0.171141 4.340298,-8.817739 -2,-5.611328 -3.138856,-8.037528 6.725125,-2.130808 6.697266,-8.642578 0.889321,-3.894877 -8.243039,-1.388529 -10.716797,-1.808594 z"
       id="path8340"
       inkscape:connector-curvature="0" />
    <path
       style="font-style:normal;font-variant:normal;font-weight:normal;font-stretch:normal;font-size:25.39999962px;line-height:6.61458302px;font-family:'Nova Cut';-inkscape-font-specification:'Nova Cut, Normal';font-variant-ligatures:normal;font-variant-caps:normal;font-variant-numeric:normal;font-feature-settings:normal;text-align:start;letter-spacing:0px;word-spacing:0px;writing-mode:lr-tb;text-anchor:start;fill:#ffffff;fill-opacity:1;stroke:none;stroke-width:0.26458332px;stroke-linecap:butt;stroke-linejoin:miter;stroke-opacity:1"
       d="m 74.556641,27.404297 c -9.424582,1.361475 3.658975,7.87828 -1.280675,12.049191 -5.063956,3.109659 -0.552269,8.360071 3.079503,5.466434 1.996538,-5.973633 4.372849,5.356153 9.002152,-0.709685 1.319488,-3.392067 -6.867687,-9.171132 -0.07246,-13.303987 3.162176,-3.775212 -6.654559,-5.521182 -6.486328,-0.119141 -1.21309,-1.635211 -1.64632,-4.647507 -4.242187,-3.382812 z"
       id="path8342"
       inkscape:connector-curvature="0" />
    <path
       style="font-style:normal;font-variant:normal;font-weight:normal;font-stretch:normal;font-size:25.39999962px;line-height:6.61458302px;font-family:'Nova Cut';-inkscape-font-specification:'Nova Cut, Normal';font-variant-ligatures:normal;font-variant-caps:normal;font-variant-numeric:normal;font-feature-settings:normal;text-align:start;letter-spacing:0px;word-spacing:0px;writing-mode:lr-tb;text-anchor:start;fill:#ffffff;fill-opacity:1;stroke:none;stroke-width:0.26458332px;stroke-linecap:butt;stroke-linejoin:miter;stroke-opacity:1"
       d="m 102.04688,22.542969 c -6.682353,3.01081 -8.13846,8.587772 -7.041021,15.419922 -2.266147,6.246345 2.726098,11.073829 6.480471,5.03125 0.83843,-4.582129 -1.506416,-10.325464 0.80859,-14.40625 4.7849,-1.130853 2.10137,6.320629 2.75781,8.748047 -1.05988,5.64858 0.27824,11.609704 6.48047,6.658203 0.79045,-4.934747 -1.48617,-10.979236 0.80469,-15.404297 4.78566,-1.139523 2.10536,6.319703 2.75977,8.746094 -1.07023,5.652335 0.30082,11.633588 6.48046,6.623046 -0.27073,-6.945992 3.06267,-20.800165 -7.48828,-21.802734 -2.7169,-0.459518 -4.25591,4.109279 -6.46093,1.066406 -1.64037,-0.874601 -3.94451,-1.560304 -5.58203,-0.679687 z"
       id="path8344"
       inkscape:connector-curvature="0" />
    <path
       style="font-style:normal;font-variant:normal;font-weight:normal;font-stretch:normal;font-size:25.39999962px;line-height:6.61458302px;font-family:'Nova Cut';-inkscape-font-specification:'Nova Cut, Normal';font-variant-ligatures:normal;font-variant-caps:normal;font-variant-numeric:normal;font-feature-settings:normal;text-align:start;letter-spacing:0px;word-spacing:0px;writing-mode:lr-tb;text-anchor:start;fill:#ffffff;fill-opacity:1;stroke:none;stroke-width:0.26458332px;stroke-linecap:butt;stroke-linejoin:miter;stroke-opacity:1"
       d="m 127.22461,27.628906 c -6.8575,3.244261 0.26022,6.573742 -5.92578,10.41211 -1.20065,7.682666 9.43533,10.128076 14.29492,5.953125 -0.41157,-5.301067 2.32167,-14.830678 -5.12305,-16.496094 -1.03478,-0.0892 -2.46938,-0.81671 -3.24609,0.130859 z m 1.31055,10.394532 c 1.95619,0.645944 -1.00026,3.289081 -0.75,0.757812 0.0306,-0.446087 0.19399,-0.911559 0.75,-0.757812 z"
       id="path8346"
       inkscape:connector-curvature="0" />
    <path
       style="font-style:normal;font-variant:normal;font-weight:normal;font-stretch:normal;font-size:25.39999962px;line-height:6.61458302px;font-family:'Nova Cut';-inkscape-font-specification:'Nova Cut, Normal';font-variant-ligatures:normal;font-variant-caps:normal;font-variant-numeric:normal;font-feature-settings:normal;text-align:start;letter-spacing:0px;word-spacing:0px;writing-mode:lr-tb;text-anchor:start;fill:#ffffff;fill-opacity:1;stroke:none;stroke-width:0.26458332px;stroke-linecap:butt;stroke-linejoin:miter;stroke-opacity:1"
       d="m 141.23828,27.628906 c -5.15133,2.460812 -7.01593,6.584451 -5.89453,12.097656 0.12969,5.683645 8.42504,8.457055 11.50527,3.25323 5.09288,-2.863394 1.26575,-6.758657 2.71739,-9.743464 -0.0819,-4.046601 -4.83833,-6.967689 -8.32813,-5.607422 z m 1.31055,5.544922 c 1.86648,0.502303 -1.0038,4.700504 1.64062,4.027344 -1.53755,-0.297347 -0.51629,3.975386 -2.33984,2.302734 0.51584,-1.482454 -1.32436,-5.947291 0.69922,-6.330078 z"
       id="path8348"
       inkscape:connector-curvature="0" />
    <path
       style="font-style:normal;font-variant:normal;font-weight:normal;font-stretch:normal;font-size:25.39999962px;line-height:6.61458302px;font-family:'Nova Cut';-inkscape-font-specification:'Nova Cut, Normal';font-variant-ligatures:normal;font-variant-caps:normal;font-variant-numeric:normal;font-feature-settings:normal;text-align:start;letter-spacing:0px;word-spacing:0px;writing-mode:lr-tb;text-anchor:start;fill:#ffffff;fill-opacity:1;stroke:none;stroke-width:0.26458332px;stroke-linecap:butt;stroke-linejoin:miter;stroke-opacity:1"
       d="m 153.47266,22.318359 c -6.66682,1.494893 -2.22166,10.018871 -3.49805,14.923829 -1.03262,5.645663 0.218,11.74707 6.48047,6.751953 0.71562,-3.255242 -1.25388,-8.175746 0.54687,-10.81836 2.44936,0.918161 -0.18118,5.927468 0.78516,7.916016 -3.15472,7.147735 8.32988,5.303259 6.48047,-0.363281 0.52542,-4.778127 0.77671,-12.694965 -5.74024,-13.359375 -5.01458,0.966207 1.1351,-7.594627 -5.05468,-5.050782 z"
       id="path8350"
       inkscape:connector-curvature="0" />
    <path
       style="font-style:normal;font-variant:normal;font-weight:normal;font-stretch:normal;font-size:25.39999962px;line-height:6.61458302px;font-family:'Nova Cut';-inkscape-font-specification:'Nova Cut, Normal';font-variant-ligatures:normal;font-variant-caps:normal;font-variant-numeric:normal;font-feature-settings:normal;text-align:start;letter-spacing:0px;word-spacing:0px;writing-mode:lr-tb;text-anchor:start;fill:#ffffff;fill-opacity:1;stroke:none;stroke-width:0.26458332px;stroke-linecap:butt;stroke-linejoin:miter;stroke-opacity:1"
       d="m 168.10742,22.318359 c -6.2806,1.100591 -2.44274,8.601648 -3.49804,13.007813 0.0142,4.57097 -1.64628,14.164745 5.33789,9.208984 2.77939,-3.920684 0.31329,-11.16143 1.14257,-16.316406 -0.38005,-2.730433 1.57032,-7.781812 -2.98242,-5.900391 z"
       id="path8352"
       inkscape:connector-curvature="0" />
    <path
       style="font-style:normal;font-variant:normal;font-weight:normal;font-stretch:normal;font-size:25.39999962px;line-height:6.61458302px;font-family:'Nova Cut';-inkscape-font-specification:'Nova Cut, Normal';font-variant-ligatures:normal;font-variant-caps:normal;font-variant-numeric:normal;font-feature-settings:normal;text-align:start;letter-spacing:0px;word-spacing:0px;writing-mode:lr-tb;text-anchor:start;fill:#ffffff;fill-opacity:1;stroke:none;stroke-width:0.26458332px;stroke-linecap:butt;stroke-linejoin:miter;stroke-opacity:1"
       d="m 177.35352,27.628906 c -7.01708,2.713173 -6.23479,9.252632 -5.92383,15.5625 -0.3802,6.122331 9.79069,0.573153 6.48047,-4.46289 0.42321,-0.963266 -1.21575,-6.710949 1.27734,-5.205078 1.1977,3.754914 -2.32856,11.969759 2.17969,12.322265 6.85421,-0.434769 3.76401,-7.964494 4.31445,-12.609375 -0.0804,-4.047932 -4.83853,-6.967486 -8.32812,-5.607422 z"
       id="path8354"
       inkscape:connector-curvature="0" />
    <path
       style="font-style:normal;font-variant:normal;font-weight:normal;font-stretch:normal;font-size:25.39999962px;line-height:6.61458302px;font-family:'Nova Cut';-inkscape-font-specification:'Nova Cut, Normal';font-variant-ligatures:normal;font-variant-caps:normal;font-variant-numeric:normal;font-feature-settings:normal;text-align:start;letter-spacing:0px;word-spacing:0px;writing-mode:lr-tb;text-anchor:start;fill:#ffffff;fill-opacity:1;stroke:none;stroke-width:0.26458332px;stroke-linecap:butt;stroke-linejoin:miter;stroke-opacity:1"
       d="m 190.77344,27.628906 c -6.85775,3.243647 0.26012,6.573231 -5.92383,10.41211 -1.20348,7.682041 9.43546,10.128224 14.29297,5.953125 -0.41232,-5.301322 2.32233,-14.828313 -5.1211,-16.496094 -1.03526,-0.08926 -2.47092,-0.816263 -3.24804,0.130859 z m 1.31054,10.394532 c 1.9811,0.66643 -1.0062,3.291647 -0.74804,0.755859 0.0294,-0.445405 0.1913,-0.918661 0.74804,-0.755859 z"
       id="path8356"
       inkscape:connector-curvature="0" />
    <g
       id="g1669"
       transform="matrix(4.4924646,0,0,4.4924646,-565.34993,-267.86564)">
      <ellipse
         id="path4232"
         style="fill:#000000;stroke:none;stroke-width:0.28547099"
         cx="118.082"
         cy="67.531441"
         rx="3.8092535"
         ry="2.5513971" />
      <path
         sodipodi:nodetypes="czsccsssszccssccccccsccsccccssscccccsscccccccccccccccsscccccscccccccccscscczzcccscccccccssccccscccccccccscccccccccccccccccsccscsscccccsccsccscsccccccscscccsscsscscscscscsccccccsccc"
         inkscape:connector-curvature="0"
         id="path4234"
         d="m 113.52754,68.120776 c -0.0228,-0.155437 -0.097,-0.553337 -0.10232,-0.717042 -0.005,-0.163705 -0.009,-0.996731 0.007,-1.05107 l 0.0426,-0.142744 c 0.0234,-0.07851 0.0661,-0.245503 0.0948,-0.371101 0.0287,-0.125599 0.077,-0.262614 0.1073,-0.304478 0.0303,-0.04187 0.0787,-0.178882 0.10741,-0.304478 0.13966,-0.610031 0.99085,-1.520024 1.83364,-1.960309 1.44519,-0.754994 3.01863,-0.729786 4.67592,0.0749 0,0 0.38057,0.144164 0.56545,0.274552 0.18488,0.130388 0.51993,0.510733 0.51993,0.510733 l 0.51993,0.510731 0.26281,0.568821 c 0.3562,0.770934 0.41719,1.085603 0.41715,2.151923 l -5e-5,0.913438 -0.18049,0.826696 -0.18049,0.826695 -0.13281,0.124797 c -0.073,0.06864 -0.10883,0.08198 -0.0795,0.02965 l 0.0533,-0.09515 h -0.0806 c -0.0443,0 -0.1418,0.06119 -0.2166,0.135985 l -0.13597,0.135989 -0.18754,-0.05228 c -0.10313,-0.02875 -0.31587,-0.05569 -0.47274,-0.05987 l -0.28523,-0.0076 -0.3047,0.275273 -0.3047,0.275277 v 0.181443 c 0,0.0998 -0.0343,0.181439 -0.0761,0.181439 -0.0419,0 -0.0761,0.08284 -0.0761,0.184075 0,0.250624 -0.0746,0.425663 -0.17941,0.421093 -0.0479,-0.0023 -0.23049,-0.07341 -0.40586,-0.1585 l -3.9e-4,-10e-6 c -0.17537,-0.08509 -0.37552,-0.241186 -0.44478,-0.346881 l -0.12592,-0.192179 0.0832,-0.08321 c 0.0458,-0.04576 0.0832,-0.114322 0.0832,-0.152355 v -0.06915 l -0.18159,0.04558 -0.18159,0.04557 -0.0941,-0.113443 c -0.12362,-0.148947 -0.22717,-0.143329 -0.34569,0.01876 l -0.0967,0.132198 -0.14607,-0.132198 c -0.26869,-0.243156 -0.35439,-0.160875 -0.41726,0.400638 l -0.0213,0.190301 -0.20932,0.02409 -0.20934,0.02409 v -0.231659 -0.23166 l -0.20002,-0.13106 -0.20002,-0.13106 -0.29081,0.167366 c -0.15994,0.09205 -0.32468,0.167363 -0.36608,0.167363 h -0.0753 l 0.0452,-0.278254 0.0452,-0.278251 -0.088,0.05439 -0.088,0.05439 v -0.100363 c 0,-0.0552 -0.0731,-0.146013 -0.16244,-0.201811 l -0.16244,-0.101442 -0.0564,0.09126 -0.0564,0.09126 -0.0478,-0.07738 c -0.0263,-0.04256 -0.0286,-0.127431 -0.005,-0.188602 l 0.0427,-0.111228 -0.11611,-0.04456 c -0.0639,-0.02449 -0.13236,-0.01824 -0.15223,0.01387 -0.0388,0.06281 -0.24629,0.04919 -0.83774,-0.05499 l -0.37419,-0.06591 -0.10693,-0.143361 c -0.0588,-0.07885 -0.13028,-0.137623 -0.15884,-0.130612 -0.0286,0.007 -0.0548,-0.102903 -0.0584,-0.244263 -0.004,-0.141359 0.0985,-0.299966 5.8e-4,-0.473539 -0.0979,-0.173573 -0.006,-0.435146 -0.0291,-0.590583 z m 6.11321,2.97271 c 0.0236,-0.06146 0.0101,-0.131987 -0.0299,-0.156732 l -0.0728,-0.04499 v 0.156732 c 0,0.183795 0.0423,0.202339 0.10271,0.04499 z m -1.72435,-1.600933 c 0.16124,-0.112941 0.40372,-0.0852 0.40372,0.04619 0,0.105869 0.33518,0.07991 0.49712,-0.0385 l 0.14561,-0.106478 -0.0175,-0.402622 c -0.01,-0.221443 -0.0686,-0.480605 -0.13107,-0.575921 -0.0624,-0.09532 -0.11355,-0.2379 -0.11355,-0.316855 0,-0.07896 -0.0368,-0.249071 -0.0817,-0.378027 l -0.0817,-0.234469 -0.20371,-0.0023 c -0.11204,-0.0011 -0.26492,-0.01216 -0.33974,-0.02429 l -0.13602,-0.02201 -0.10175,0.190301 c -0.27747,0.518943 -0.40457,0.806361 -0.38709,0.875377 0.0106,0.04186 0.0615,0.216752 0.11319,0.38864 l 0.0939,0.312519 -0.082,0.153221 c -0.14001,0.261617 0.12208,0.345509 0.42235,0.135191 z m 0.11446,-0.35778 c -0.12654,-0.126547 -0.11431,-0.403785 0.0228,-0.517614 l 0.11418,-0.09476 v 0.351863 c 0,0.38556 -0.004,0.393402 -0.13702,0.260513 z m 0.0121,-0.936842 c -0.0242,-0.06311 -0.0214,-0.235339 0.006,-0.382714 l 0.0503,-0.26796 0.0705,0.04355 c 0.0388,0.02395 0.0638,0.196182 0.0557,0.382717 -0.0147,0.338232 -0.0992,0.441998 -0.1827,0.224403 z m -3.93954,1.0488 c -0.0253,-0.02529 -0.0433,0.01967 -0.04,0.09991 l 0.006,0.145898 0.04,-0.09991 c 0.022,-0.05495 0.0193,-0.1206 -0.006,-0.145896 z m 3.23362,-0.10471 -0.0729,-0.182322 -0.005,0.158582 c -0.003,0.08722 0.018,0.18142 0.0459,0.209327 0.0909,0.09092 0.10637,8.57e-4 0.0318,-0.185587 z m 3.72179,-0.714323 c 0.26887,-0.139041 0.31139,-0.264435 0.27132,-0.800092 -0.0391,-0.523197 -0.0738,-0.604051 -0.35395,-0.826482 l -0.22605,-0.179467 -0.50066,-0.1142 -0.50065,-0.114199 -0.18547,0.08451 -0.18547,0.0845 -0.11023,0.263806 c -0.0606,0.145091 -0.11022,0.440959 -0.11022,0.657486 v 0.393681 l 0.13321,0.104805 c 0.18781,0.147774 0.60715,0.335001 1.00858,0.450319 0.44986,0.12923 0.50127,0.128913 0.75959,-0.0047 z m -4.79554,-0.231583 c 0.27302,-0.105975 0.56744,-0.25217 0.65428,-0.324877 l 0.15789,-0.13219 0.0928,-0.471752 0.0928,-0.47175 -0.11889,-0.229884 -0.11887,-0.229884 -0.20041,-0.0503 c -0.11022,-0.02766 -0.30656,-0.01425 -0.4363,0.02974 -0.12974,0.04402 -0.37291,0.102712 -0.54038,0.130431 -0.39139,0.06479 -0.84351,0.360022 -0.89822,0.586543 -0.0235,0.09722 -0.0787,0.313773 -0.12277,0.481236 l -0.0801,0.304477 0.0825,0.205542 0.0825,0.20554 0.20166,0.0739 c 0.33526,0.122856 0.63052,0.09548 1.15155,-0.106769 z m -1.77454,-1.761053 c -0.0279,-0.02792 -0.0507,-0.0051 -0.0507,0.05075 0,0.05582 0.0228,0.07866 0.0507,0.05074 0.0279,-0.02792 0.0279,-0.07358 0,-0.101493 z m 0.25373,0.0037 c 0,-0.02095 -0.0343,-0.01687 -0.0761,0.009 -0.0419,0.02586 -0.0761,0.06417 -0.0761,0.0851 0,0.02095 0.0343,0.01687 0.0761,-0.009 0.0419,-0.02586 0.0761,-0.06417 0.0761,-0.0851 z m 1.64399,4.948648 c -0.025,-0.06518 -0.0455,-0.235605 -0.0455,-0.378711 v -0.260193 h 0.12101 c 0.13367,0 0.40531,0.289197 0.40929,0.435735 0.001,0.05126 -0.0969,0.144605 -0.2184,0.207443 l -0.22094,0.114254 -0.0455,-0.118522 z"
         style="fill:#f9f9f9;stroke:#000000;stroke-width:0.1712826;stroke-miterlimit:4;stroke-dasharray:none;stroke-opacity:1" />
    </g>
    <text
       xml:space="preserve"
       style="font-style:normal;font-variant:normal;font-weight:normal;font-stretch:normal;font-size:25.39999962px;line-height:6.61458302px;font-family:'Nova Cut';-inkscape-font-specification:'Nova Cut, Normal';font-variant-ligatures:normal;font-variant-caps:normal;font-variant-numeric:normal;font-feature-settings:normal;text-align:start;letter-spacing:0px;word-spacing:0px;writing-mode:lr-tb;text-anchor:start;fill:#000000;fill-opacity:1;stroke:none;stroke-width:0.26458332px;stroke-linecap:butt;stroke-linejoin:miter;stroke-opacity:1"
       x="-9.703227"
       y="43.349041"
       id="text8295"><tspan
         sodipodi:role="line"
         id="tspan8293"
         x="-9.703227"
         y="43.349041"
         style="font-style:normal;font-variant:normal;font-weight:normal;font-stretch:normal;font-size:25.39999962px;font-family:'Nova Cut';-inkscape-font-specification:'Nova Cut, Normal';font-variant-ligatures:normal;font-variant-caps:normal;font-variant-numeric:normal;font-feature-settings:normal;text-align:start;writing-mode:lr-tb;text-anchor:start;stroke-width:0.26458332px">Deus Ex Machina</tspan></text>
  </g>
</svg>
